<svg width="1280" height="620" viewBox="0 0 1280 620" fill="none" xmlns="http://www.w3.org/2000/svg" role="img" aria-labelledby="title desc">
  <title id="title">Fluent inspired GitHub profile hero for Hamed Rezaei Adaryani</title>
  <desc id="desc">A soft Fluent 2 inspired interface with side navigation, a large profile title, translucent glass cubes, and rounded design and develop cards.</desc>
  <defs>
    <linearGradient id="bg" x1="0" y1="0" x2="1280" y2="620" gradientUnits="userSpaceOnUse">
      <stop stop-color="#FAF9F8"/>
      <stop offset="0.45" stop-color="#F6F3F7"/>
      <stop offset="1" stop-color="#EDF7FA"/>
    </linearGradient>
    <linearGradient id="cyan" x1="688" y1="86" x2="975" y2="267" gradientUnits="userSpaceOnUse">
      <stop stop-color="#A9F5FF" stop-opacity="0.92"/>
      <stop offset="0.45" stop-color="#B8A7FF" stop-opacity="0.75"/>
      <stop offset="1" stop-color="#FFF5C3" stop-opacity="0.88"/>
    </linearGradient>
    <linearGradient id="pink" x1="759" y1="190" x2="1044" y2="386" gradientUnits="userSpaceOnUse">
      <stop stop-color="#FFD8E9" stop-opacity="0.96"/>
      <stop offset="0.5" stop-color="#FF5CAD" stop-opacity="0.68"/>
      <stop offset="1" stop-color="#A5F3FF" stop-opacity="0.78"/>
    </linearGradient>
    <linearGradient id="green" x1="714" y1="322" x2="974" y2="508" gradientUnits="userSpaceOnUse">
      <stop stop-color="#D9FFF0" stop-opacity="0.96"/>
      <stop offset="0.48" stop-color="#7CFFB1" stop-opacity="0.72"/>
      <stop offset="1" stop-color="#B6D7FF" stop-opacity="0.88"/>
    </linearGradient>
    <linearGradient id="accent" x1="394" y1="219" x2="615" y2="219" gradientUnits="userSpaceOnUse">
      <stop stop-color="#0F6CBD"/>
      <stop offset="0.45" stop-color="#00B7C3"/>
      <stop offset="1" stop-color="#7F52FF"/>
    </linearGradient>
    <filter id="shadow" x="-25%" y="-25%" width="150%" height="150%" color-interpolation-filters="sRGB">
      <feDropShadow dx="0" dy="18" stdDeviation="18" flood-color="#201F1E" flood-opacity="0.14"/>
    </filter>
    <filter id="soft" x="-25%" y="-25%" width="150%" height="150%" color-interpolation-filters="sRGB">
      <feGaussianBlur stdDeviation="34"/>
    </filter>
  </defs>

  <rect width="1280" height="620" rx="36" fill="url(#bg)"/>
  <circle cx="888" cy="395" r="198" fill="#00B7C3" opacity="0.13" filter="url(#soft)"/>
  <circle cx="564" cy="430" r="210" fill="#FFB900" opacity="0.12" filter="url(#soft)"/>
  <circle cx="820" cy="158" r="174" fill="#7F52FF" opacity="0.11" filter="url(#soft)"/>

  <path d="M759 70L1106 270" stroke="#FFFFFF" stroke-width="4" stroke-opacity="0.82"/>
  <path d="M720 119L1047 500" stroke="#FFFFFF" stroke-width="4" stroke-opacity="0.72"/>
  <path d="M642 78L394 395" stroke="#FFFFFF" stroke-width="3" stroke-opacity="0.42"/>
  <path d="M1004 90L682 478" stroke="#FFFFFF" stroke-width="3" stroke-opacity="0.5"/>

  <g filter="url(#shadow)">
    <rect x="0" y="0" width="244" height="620" fill="#FFFFFF" fill-opacity="0.78"/>
    <rect x="38" y="40" width="28" height="28" rx="5" fill="#242424"/>
    <path d="M72 42L90 52.5L72 63V42Z" fill="#616161"/>
    <text x="102" y="61" fill="#242424" font-family="Segoe UI, Arial, sans-serif" font-size="19" font-weight="700">Hamed UI</text>
    <rect x="157" y="42" width="58" height="23" rx="11.5" fill="#F3F2F1"/>
    <text x="174" y="58" fill="#605E5C" font-family="Segoe UI, Arial, sans-serif" font-size="10">Search /</text>

    <g font-family="Segoe UI, Arial, sans-serif" font-size="14" font-weight="600" fill="#323130">
      <text x="56" y="125">Get started</text>
      <text x="56" y="169">Design language</text>
      <text x="56" y="213">UX frameworks</text>
      <text x="56" y="257">Working with AI</text>
      <text x="56" y="301">Web tokens</text>
      <text x="56" y="389">Components</text>
    </g>
    <g stroke="#8A8886" stroke-width="2" stroke-linecap="round">
      <path d="M35 120L40 125L35 130"/>
      <path d="M35 164L40 169L35 174"/>
      <path d="M35 208L40 213L35 218"/>
      <path d="M35 252L40 257L35 262"/>
      <path d="M35 296L40 301L35 306"/>
      <path d="M35 384L40 389L35 394"/>
    </g>
    <rect x="28" y="326" width="188" height="34" rx="7" fill="#FFF7F9" stroke="#C7A1AD"/>
    <text x="57" y="348" fill="#A4262C" font-family="Segoe UI, Arial, sans-serif" font-size="14" font-weight="600">Windows</text>
    <text x="58" y="414" fill="#605E5C" font-family="Segoe UI, Arial, sans-serif" font-size="12">Overview</text>
  </g>

  <g font-family="Segoe UI, Arial, sans-serif">
    <text x="345" y="106" fill="#323130" font-size="18" font-weight="800" letter-spacing="8">WELCOME TO</text>
    <text x="343" y="205" fill="#11100F" font-size="82" font-weight="800">Hamed</text>
    <text x="343" y="286" fill="#11100F" font-size="62" font-weight="760">Let the </text>
    <text x="553" y="286" fill="url(#accent)" font-size="62" font-weight="760">@ideas</text>
    <text x="733" y="286" fill="#11100F" font-size="62" font-weight="760"> flow</text>
    <rect x="344" y="326" width="178" height="43" rx="21.5" fill="#000000"/>
    <text x="377" y="354" fill="#FFFFFF" font-size="16" font-weight="700">Explore my work</text>
  </g>

  <g filter="url(#shadow)" opacity="0.98">
    <path d="M910 64L1030 126L910 188L790 126L910 64Z" fill="url(#cyan)" stroke="#FFFFFF" stroke-width="3"/>
    <path d="M790 126L910 188V267L790 204V126Z" fill="#9BE8FF" fill-opacity="0.34" stroke="#FFFFFF" stroke-opacity="0.7" stroke-width="2"/>
    <path d="M1030 126L910 188V267L1030 205V126Z" fill="#8D82FF" fill-opacity="0.24" stroke="#FFFFFF" stroke-opacity="0.7" stroke-width="2"/>
  </g>
  <g filter="url(#shadow)" opacity="0.98">
    <path d="M850 190L992 264L850 338L708 264L850 190Z" fill="url(#pink)" stroke="#FFFFFF" stroke-width="3"/>
    <path d="M708 264L850 338V433L708 358V264Z" fill="#FF7AAD" fill-opacity="0.35" stroke="#FFFFFF" stroke-opacity="0.75" stroke-width="2"/>
    <path d="M992 264L850 338V433L992 359V264Z" fill="#55D9FF" fill-opacity="0.24" stroke="#FFFFFF" stroke-opacity="0.75" stroke-width="2"/>
  </g>
  <g filter="url(#shadow)" opacity="0.98">
    <path d="M925 320L1054 388L925 456L796 388L925 320Z" fill="url(#green)" stroke="#FFFFFF" stroke-width="3"/>
    <path d="M796 388L925 456V542L796 474V388Z" fill="#75FFB3" fill-opacity="0.38" stroke="#FFFFFF" stroke-opacity="0.75" stroke-width="2"/>
    <path d="M1054 388L925 456V542L1054 474V388Z" fill="#B4D7FF" fill-opacity="0.28" stroke="#FFFFFF" stroke-opacity="0.75" stroke-width="2"/>
  </g>

  <g filter="url(#shadow)">
    <rect x="344" y="432" width="386" height="118" rx="22" fill="#FFFFFF" fill-opacity="0.82" stroke="#FFFFFF" stroke-width="2"/>
    <rect x="382" y="461" width="60" height="60" rx="14" fill="#F5F5F5"/>
    <path d="M398 506L424 480" stroke="#0F6CBD" stroke-width="8" stroke-linecap="round"/>
    <path d="M403 477C412 467 429 470 430 486" stroke="#D83B01" stroke-width="6" stroke-linecap="round"/>
    <path d="M414 514C435 514 448 498 448 479" stroke="#00B7C3" stroke-width="6" stroke-linecap="round"/>
    <text x="476" y="485" fill="#242424" font-family="Segoe UI, Arial, sans-serif" font-size="26" font-weight="760">Design</text>
    <text x="476" y="516" fill="#605E5C" font-family="Segoe UI, Arial, sans-serif" font-size="17">UI systems, graphics, tokens</text>
  </g>

  <g filter="url(#shadow)">
    <rect x="756" y="432" width="386" height="118" rx="22" fill="#FFFFFF" fill-opacity="0.82" stroke="#FFFFFF" stroke-width="2"/>
    <rect x="794" y="461" width="60" height="60" rx="14" fill="#F5F5F5"/>
    <path d="M812 481L800 491L812 501" stroke="#0F6CBD" stroke-width="5" stroke-linecap="round" stroke-linejoin="round"/>
    <path d="M836 481L848 491L836 501" stroke="#0F6CBD" stroke-width="5" stroke-linecap="round" stroke-linejoin="round"/>
    <path d="M828 476L820 506" stroke="#13A10E" stroke-width="5" stroke-linecap="round"/>
    <rect x="804" y="467" width="40" height="48" rx="8" stroke="#7F52FF" stroke-width="3" stroke-dasharray="7 7"/>
    <text x="888" y="485" fill="#242424" font-family="Segoe UI, Arial, sans-serif" font-size="26" font-weight="760">Develop</text>
    <text x="888" y="516" fill="#605E5C" font-family="Segoe UI, Arial, sans-serif" font-size="17">.NET MAUI, WinUI, Python ML</text>
  </g>
</svg>
